<?xml version="1.0" encoding="UTF-8" standalone="no"?>
<!DOCTYPE svg PUBLIC "-//W3C//DTD SVG 1.1//EN" "http://www.w3.org/Graphics/SVG/1.1/DTD/svg11.dtd">
<!-- Generated by graphviz version 2.40.1 (20161225.0304)
 -->
<!-- Title: issr_simulation Pages: 1 -->
<svg xmlns="http://www.w3.org/2000/svg" xmlns:xlink="http://www.w3.org/1999/xlink" width="948pt" height="484pt" viewBox="0.00 0.00 948.46 484.00">
  <g id="graph0" class="graph" transform="scale(1 1) rotate(0) translate(4 480)">
    <title>issr_simulation</title>
    <polygon fill="#ffffff" stroke="transparent" points="-4,4 -4,-480 944.46,-480 944.46,4 -4,4"/>
    <text text-anchor="middle" x="355.0185" y="-31" font-family="Helvetica,sans-Serif" font-size="10.00" fill="#000000">This diagram shows the flow of information in the simulation. Each round-edged box represents a random variable with an associated probability distribution. </text>
    <text text-anchor="middle" x="355.0185" y="-19" font-family="Helvetica,sans-Serif" font-size="10.00" fill="#000000">         The rectangular boxes show intermediate metrics calculated from the random variables, </text>
    <text text-anchor="middle" x="355.0185" y="-7" font-family="Helvetica,sans-Serif" font-size="10.00" fill="#000000">and further downstream calculations lead to the final outcomes of the simulation, represented by the grey boxes</text>
    <!-- A -->
    <g id="node1" class="node">
      <title>A</title>
      <path fill="none" stroke="#000000" d="M191.0114,-400C191.0114,-400 152.6676,-400 152.6676,-400 146.6676,-400 140.6676,-394 140.6676,-388 140.6676,-388 140.6676,-376 140.6676,-376 140.6676,-370 146.6676,-364 152.6676,-364 152.6676,-364 191.0114,-364 191.0114,-364 197.0114,-364 203.0114,-370 203.0114,-376 203.0114,-376 203.0114,-388 203.0114,-388 203.0114,-394 197.0114,-400 191.0114,-400"/>
      <text text-anchor="middle" x="171.8395" y="-379" font-family="Helvetica,sans-Serif" font-size="10.00" fill="#000000">Slum Area</text>
    </g>
    <!-- 1 -->
    <g id="node14" class="node">
      <title>1</title>
      <polygon fill="none" stroke="#000000" points="288.3555,-324 207.3235,-324 207.3235,-288 288.3555,-288 288.3555,-324"/>
      <text text-anchor="middle" x="247.8395" y="-309" font-family="Helvetica,sans-Serif" font-size="10.00" fill="#000000">Total</text>
      <text text-anchor="middle" x="247.8395" y="-297" font-family="Helvetica,sans-Serif" font-size="10.00" fill="#000000">Buildable Area</text>
    </g>
    <!-- A&#45;&gt;1 -->
    <g id="edge2" class="edge">
      <title>A-&gt;1</title>
      <path fill="none" stroke="#000000" d="M189.8504,-363.9891C199.6226,-354.2169 211.8602,-341.9793 222.5717,-331.2678"/>
      <polygon fill="#000000" stroke="#000000" points="225.0983,-333.691 229.6945,-324.145 220.1485,-328.7412 225.0983,-333.691"/>
    </g>
    <!-- B -->
    <g id="node2" class="node">
      <title>B</title>
      <path fill="none" stroke="#000000" d="M565.3635,-404C565.3635,-404 498.3155,-404 498.3155,-404 492.3155,-404 486.3155,-398 486.3155,-392 486.3155,-392 486.3155,-372 486.3155,-372 486.3155,-366 492.3155,-360 498.3155,-360 498.3155,-360 565.3635,-360 565.3635,-360 571.3635,-360 577.3635,-366 577.3635,-372 577.3635,-372 577.3635,-392 577.3635,-392 577.3635,-398 571.3635,-404 565.3635,-404"/>
      <text text-anchor="middle" x="531.8395" y="-391" font-family="Helvetica,sans-Serif" font-size="10.00" fill="#000000">Number of</text>
      <text text-anchor="middle" x="531.8395" y="-379" font-family="Helvetica,sans-Serif" font-size="10.00" fill="#000000">Households</text>
      <text text-anchor="middle" x="531.8395" y="-367" font-family="Helvetica,sans-Serif" font-size="10.00" fill="#000000">in the Slum Land</text>
    </g>
    <!-- 3 -->
    <g id="node15" class="node">
      <title>3</title>
      <polygon fill="none" stroke="#000000" points="696.4253,-324 585.2537,-324 585.2537,-288 696.4253,-288 696.4253,-324"/>
      <text text-anchor="middle" x="640.8395" y="-309" font-family="Helvetica,sans-Serif" font-size="10.00" fill="#000000">Area Required for</text>
      <text text-anchor="middle" x="640.8395" y="-297" font-family="Helvetica,sans-Serif" font-size="10.00" fill="#000000">Redeveloped Houses</text>
    </g>
    <!-- B&#45;&gt;3 -->
    <g id="edge5" class="edge">
      <title>B-&gt;3</title>
      <path fill="none" stroke="#000000" d="M563.6598,-359.8133C577.0855,-350.4523 592.746,-339.5331 606.4383,-329.9862"/>
      <polygon fill="#000000" stroke="#000000" points="608.4706,-332.836 614.6717,-324.2454 604.467,-327.0939 608.4706,-332.836"/>
    </g>
    <!-- C -->
    <g id="node3" class="node">
      <title>C</title>
      <path fill="none" stroke="#000000" d="M347.7595,-476C347.7595,-476 301.9195,-476 301.9195,-476 295.9195,-476 289.9195,-470 289.9195,-464 289.9195,-464 289.9195,-452 289.9195,-452 289.9195,-446 295.9195,-440 301.9195,-440 301.9195,-440 347.7595,-440 347.7595,-440 353.7595,-440 359.7595,-446 359.7595,-452 359.7595,-452 359.7595,-464 359.7595,-464 359.7595,-470 353.7595,-476 347.7595,-476"/>
      <text text-anchor="middle" x="324.8395" y="-461" font-family="Helvetica,sans-Serif" font-size="10.00" fill="#000000">Land Shape</text>
      <text text-anchor="middle" x="324.8395" y="-449" font-family="Helvetica,sans-Serif" font-size="10.00" fill="#000000">Index</text>
    </g>
    <!-- 10 -->
    <g id="node19" class="node">
      <title>10</title>
      <polygon fill="none" stroke="#000000" points="356.6298,-400 293.0492,-400 293.0492,-364 356.6298,-364 356.6298,-400"/>
      <text text-anchor="middle" x="324.8395" y="-385" font-family="Helvetica,sans-Serif" font-size="10.00" fill="#000000">Penalty for</text>
      <text text-anchor="middle" x="324.8395" y="-373" font-family="Helvetica,sans-Serif" font-size="10.00" fill="#000000">Shape</text>
    </g>
    <!-- C&#45;&gt;10 -->
    <g id="edge1" class="edge">
      <title>C-&gt;10</title>
      <path fill="none" stroke="#000000" d="M324.8395,-439.9891C324.8395,-431.1566 324.8395,-420.3099 324.8395,-410.3965"/>
      <polygon fill="#000000" stroke="#000000" points="328.3396,-410.145 324.8395,-400.145 321.3396,-410.1451 328.3396,-410.145"/>
    </g>
    <!-- D -->
    <g id="node4" class="node">
      <title>D</title>
      <path fill="none" stroke="#000000" d="M262.8395,-400C262.8395,-400 232.8395,-400 232.8395,-400 226.8395,-400 220.8395,-394 220.8395,-388 220.8395,-388 220.8395,-376 220.8395,-376 220.8395,-370 226.8395,-364 232.8395,-364 232.8395,-364 262.8395,-364 262.8395,-364 268.8395,-364 274.8395,-370 274.8395,-376 274.8395,-376 274.8395,-388 274.8395,-388 274.8395,-394 268.8395,-400 262.8395,-400"/>
      <text text-anchor="middle" x="247.8395" y="-379" font-family="Helvetica,sans-Serif" font-size="10.00" fill="#000000">FAR</text>
    </g>
    <!-- D&#45;&gt;1 -->
    <g id="edge4" class="edge">
      <title>D-&gt;1</title>
      <path fill="none" stroke="#000000" d="M247.8395,-363.9891C247.8395,-355.1566 247.8395,-344.3099 247.8395,-334.3965"/>
      <polygon fill="#000000" stroke="#000000" points="251.3396,-334.145 247.8395,-324.145 244.3396,-334.1451 251.3396,-334.145"/>
    </g>
    <!-- E -->
    <g id="node5" class="node">
      <title>E</title>
      <path fill="none" stroke="#000000" d="M674.3575,-404C674.3575,-404 607.3215,-404 607.3215,-404 601.3215,-404 595.3215,-398 595.3215,-392 595.3215,-392 595.3215,-372 595.3215,-372 595.3215,-366 601.3215,-360 607.3215,-360 607.3215,-360 674.3575,-360 674.3575,-360 680.3575,-360 686.3575,-366 686.3575,-372 686.3575,-372 686.3575,-392 686.3575,-392 686.3575,-398 680.3575,-404 674.3575,-404"/>
      <text text-anchor="middle" x="640.8395" y="-391" font-family="Helvetica,sans-Serif" font-size="10.00" fill="#000000">Additional</text>
      <text text-anchor="middle" x="640.8395" y="-379" font-family="Helvetica,sans-Serif" font-size="10.00" fill="#000000">Households</text>
      <text text-anchor="middle" x="640.8395" y="-367" font-family="Helvetica,sans-Serif" font-size="10.00" fill="#000000">to Accommodate</text>
    </g>
    <!-- E&#45;&gt;3 -->
    <g id="edge6" class="edge">
      <title>E-&gt;3</title>
      <path fill="none" stroke="#000000" d="M640.8395,-359.6086C640.8395,-351.7272 640.8395,-342.7616 640.8395,-334.4482"/>
      <polygon fill="#000000" stroke="#000000" points="644.3396,-334.3974 640.8395,-324.3975 637.3396,-334.3975 644.3396,-334.3974"/>
    </g>
    <!-- F -->
    <g id="node6" class="node">
      <title>F</title>
      <path fill="none" stroke="#000000" d="M767.2496,-404C767.2496,-404 716.4294,-404 716.4294,-404 710.4294,-404 704.4294,-398 704.4294,-392 704.4294,-392 704.4294,-372 704.4294,-372 704.4294,-366 710.4294,-360 716.4294,-360 716.4294,-360 767.2496,-360 767.2496,-360 773.2496,-360 779.2496,-366 779.2496,-372 779.2496,-372 779.2496,-392 779.2496,-392 779.2496,-398 773.2496,-404 767.2496,-404"/>
      <text text-anchor="middle" x="741.8395" y="-391" font-family="Helvetica,sans-Serif" font-size="10.00" fill="#000000">Redeveloped</text>
      <text text-anchor="middle" x="741.8395" y="-379" font-family="Helvetica,sans-Serif" font-size="10.00" fill="#000000">House</text>
      <text text-anchor="middle" x="741.8395" y="-367" font-family="Helvetica,sans-Serif" font-size="10.00" fill="#000000">Size</text>
    </g>
    <!-- F&#45;&gt;3 -->
    <g id="edge7" class="edge">
      <title>F-&gt;3</title>
      <path fill="none" stroke="#000000" d="M712.3546,-359.8133C700.1491,-350.629 685.9501,-339.9446 673.436,-330.528"/>
      <polygon fill="#000000" stroke="#000000" points="675.1817,-327.4614 665.0867,-324.2454 670.9728,-333.0548 675.1817,-327.4614"/>
    </g>
    <!-- G -->
    <g id="node7" class="node">
      <title>G</title>
      <path fill="none" stroke="#000000" d="M377.5828,-248C377.5828,-248 288.0962,-248 288.0962,-248 282.0962,-248 276.0962,-242 276.0962,-236 276.0962,-236 276.0962,-224 276.0962,-224 276.0962,-218 282.0962,-212 288.0962,-212 288.0962,-212 377.5828,-212 377.5828,-212 383.5828,-212 389.5828,-218 389.5828,-224 389.5828,-224 389.5828,-236 389.5828,-236 389.5828,-242 383.5828,-248 377.5828,-248"/>
      <text text-anchor="middle" x="332.8395" y="-233" font-family="Helvetica,sans-Serif" font-size="10.00" fill="#000000">Construction Cost</text>
      <text text-anchor="middle" x="332.8395" y="-221" font-family="Helvetica,sans-Serif" font-size="10.00" fill="#000000">(Redeveloped House)</text>
    </g>
    <!-- 6 -->
    <g id="node17" class="node">
      <title>6</title>
      <polygon fill="none" stroke="#000000" points="485.4021,-172 424.2769,-172 424.2769,-136 485.4021,-136 485.4021,-172"/>
      <text text-anchor="middle" x="454.8395" y="-151" font-family="Helvetica,sans-Serif" font-size="10.00" fill="#000000">Total Cost</text>
    </g>
    <!-- G&#45;&gt;6 -->
    <g id="edge12" class="edge">
      <title>G-&gt;6</title>
      <path fill="none" stroke="#000000" d="M361.7518,-211.9891C378.1928,-201.7471 398.9813,-188.7969 416.7403,-177.7339"/>
      <polygon fill="#000000" stroke="#000000" points="419.0748,-180.4033 425.7119,-172.145 415.3735,-174.4618 419.0748,-180.4033"/>
    </g>
    <!-- H -->
    <g id="node8" class="node">
      <title>H</title>
      <path fill="none" stroke="#000000" d="M490.7966,-248C490.7966,-248 418.8824,-248 418.8824,-248 412.8824,-248 406.8824,-242 406.8824,-236 406.8824,-236 406.8824,-224 406.8824,-224 406.8824,-218 412.8824,-212 418.8824,-212 418.8824,-212 490.7966,-212 490.7966,-212 496.7966,-212 502.7966,-218 502.7966,-224 502.7966,-224 502.7966,-236 502.7966,-236 502.7966,-242 496.7966,-248 490.7966,-248"/>
      <text text-anchor="middle" x="454.8395" y="-233" font-family="Helvetica,sans-Serif" font-size="10.00" fill="#000000">Construction Cost</text>
      <text text-anchor="middle" x="454.8395" y="-221" font-family="Helvetica,sans-Serif" font-size="10.00" fill="#000000">(Premium House)</text>
    </g>
    <!-- H&#45;&gt;6 -->
    <g id="edge13" class="edge">
      <title>H-&gt;6</title>
      <path fill="none" stroke="#000000" d="M454.8395,-211.9891C454.8395,-203.1566 454.8395,-192.3099 454.8395,-182.3965"/>
      <polygon fill="#000000" stroke="#000000" points="458.3396,-182.145 454.8395,-172.145 451.3396,-182.1451 458.3396,-182.145"/>
    </g>
    <!-- I -->
    <g id="node9" class="node">
      <title>I</title>
      <path fill="none" stroke="#000000" d="M75.5191,-252C75.5191,-252 12.1599,-252 12.1599,-252 6.1599,-252 .1599,-246 .1599,-240 .1599,-240 .1599,-220 .1599,-220 .1599,-214 6.1599,-208 12.1599,-208 12.1599,-208 75.5191,-208 75.5191,-208 81.5191,-208 87.5191,-214 87.5191,-220 87.5191,-220 87.5191,-240 87.5191,-240 87.5191,-246 81.5191,-252 75.5191,-252"/>
      <text text-anchor="middle" x="43.8395" y="-239" font-family="Helvetica,sans-Serif" font-size="10.00" fill="#000000">Transit</text>
      <text text-anchor="middle" x="43.8395" y="-227" font-family="Helvetica,sans-Serif" font-size="10.00" fill="#000000">Accommodation</text>
      <text text-anchor="middle" x="43.8395" y="-215" font-family="Helvetica,sans-Serif" font-size="10.00" fill="#000000">Cost</text>
    </g>
    <!-- I&#45;&gt;6 -->
    <g id="edge15" class="edge">
      <title>I-&gt;6</title>
      <path fill="none" stroke="#000000" d="M87.8013,-210.8096C90.8325,-209.7789 93.8643,-208.8285 96.8395,-208 209.2074,-176.7101 346.7837,-162.4085 413.976,-156.9077"/>
      <polygon fill="#000000" stroke="#000000" points="414.45,-160.3811 424.1409,-156.0992 413.8949,-153.4032 414.45,-160.3811"/>
    </g>
    <!-- J -->
    <g id="node10" class="node">
      <title>J</title>
      <path fill="none" stroke="#000000" d="M246.1873,-248C246.1873,-248 195.4917,-248 195.4917,-248 189.4917,-248 183.4917,-242 183.4917,-236 183.4917,-236 183.4917,-224 183.4917,-224 183.4917,-218 189.4917,-212 195.4917,-212 195.4917,-212 246.1873,-212 246.1873,-212 252.1873,-212 258.1873,-218 258.1873,-224 258.1873,-224 258.1873,-236 258.1873,-236 258.1873,-242 252.1873,-248 246.1873,-248"/>
      <text text-anchor="middle" x="220.8395" y="-233" font-family="Helvetica,sans-Serif" font-size="10.00" fill="#000000">Cost Inflation</text>
      <text text-anchor="middle" x="220.8395" y="-221" font-family="Helvetica,sans-Serif" font-size="10.00" fill="#000000">Factor</text>
    </g>
    <!-- J&#45;&gt;6 -->
    <g id="edge14" class="edge">
      <title>J-&gt;6</title>
      <path fill="none" stroke="#000000" d="M257.2582,-211.9082C260.4699,-210.5186 263.6947,-209.1942 266.8395,-208 316.5277,-189.1323 375.731,-173.1508 414.2419,-163.5789"/>
      <polygon fill="#000000" stroke="#000000" points="415.1731,-166.9543 424.0488,-161.1688 413.5025,-160.1565 415.1731,-166.9543"/>
    </g>
    <!-- K -->
    <g id="node11" class="node">
      <title>K</title>
      <path fill="none" stroke="#000000" d="M927.4021,-324C927.4021,-324 890.2769,-324 890.2769,-324 884.2769,-324 878.2769,-318 878.2769,-312 878.2769,-312 878.2769,-300 878.2769,-300 878.2769,-294 884.2769,-288 890.2769,-288 890.2769,-288 927.4021,-288 927.4021,-288 933.4021,-288 939.4021,-294 939.4021,-300 939.4021,-300 939.4021,-312 939.4021,-312 939.4021,-318 933.4021,-324 927.4021,-324"/>
      <text text-anchor="middle" x="908.8395" y="-309" font-family="Helvetica,sans-Serif" font-size="10.00" fill="#000000">Sale Price</text>
      <text text-anchor="middle" x="908.8395" y="-297" font-family="Helvetica,sans-Serif" font-size="10.00" fill="#000000">of TDR</text>
    </g>
    <!-- 12 -->
    <g id="node21" class="node">
      <title>12</title>
      <polygon fill="none" stroke="#000000" points="940.581,-248 877.098,-248 877.098,-212 940.581,-212 940.581,-248"/>
      <text text-anchor="middle" x="908.8395" y="-233" font-family="Helvetica,sans-Serif" font-size="10.00" fill="#000000">Total TDR</text>
      <text text-anchor="middle" x="908.8395" y="-221" font-family="Helvetica,sans-Serif" font-size="10.00" fill="#000000">Generated</text>
    </g>
    <!-- K&#45;&gt;12 -->
    <g id="edge20" class="edge">
      <title>K-&gt;12</title>
      <path fill="none" stroke="#000000" d="M908.8395,-287.9891C908.8395,-279.1566 908.8395,-268.3099 908.8395,-258.3965"/>
      <polygon fill="#000000" stroke="#000000" points="912.3396,-258.145 908.8395,-248.145 905.3396,-258.1451 912.3396,-258.145"/>
    </g>
    <!-- L -->
    <g id="node12" class="node">
      <title>L</title>
      <path fill="none" stroke="#000000" d="M752.7865,-248C752.7865,-248 680.8925,-248 680.8925,-248 674.8925,-248 668.8925,-242 668.8925,-236 668.8925,-236 668.8925,-224 668.8925,-224 668.8925,-218 674.8925,-212 680.8925,-212 680.8925,-212 752.7865,-212 752.7865,-212 758.7865,-212 764.7865,-218 764.7865,-224 764.7865,-224 764.7865,-236 764.7865,-236 764.7865,-242 758.7865,-248 752.7865,-248"/>
      <text text-anchor="middle" x="716.8395" y="-233" font-family="Helvetica,sans-Serif" font-size="10.00" fill="#000000">Premium Housing</text>
      <text text-anchor="middle" x="716.8395" y="-221" font-family="Helvetica,sans-Serif" font-size="10.00" fill="#000000">Sale Price</text>
    </g>
    <!-- 7 -->
    <g id="node18" class="node">
      <title>7</title>
      <polygon fill="none" stroke="#000000" points="757.3575,-172 676.3215,-172 676.3215,-136 757.3575,-136 757.3575,-172"/>
      <text text-anchor="middle" x="716.8395" y="-151" font-family="Helvetica,sans-Serif" font-size="10.00" fill="#000000">Total Revenue</text>
    </g>
    <!-- L&#45;&gt;7 -->
    <g id="edge23" class="edge">
      <title>L-&gt;7</title>
      <path fill="none" stroke="#000000" d="M716.8395,-211.9891C716.8395,-203.1566 716.8395,-192.3099 716.8395,-182.3965"/>
      <polygon fill="#000000" stroke="#000000" points="720.3396,-182.145 716.8395,-172.145 713.3396,-182.1451 720.3396,-182.145"/>
    </g>
    <!-- M -->
    <g id="node13" class="node">
      <title>M</title>
      <path fill="none" stroke="#000000" d="M835.8395,-324C835.8395,-324 805.8395,-324 805.8395,-324 799.8395,-324 793.8395,-318 793.8395,-312 793.8395,-312 793.8395,-300 793.8395,-300 793.8395,-294 799.8395,-288 805.8395,-288 805.8395,-288 835.8395,-288 835.8395,-288 841.8395,-288 847.8395,-294 847.8395,-300 847.8395,-300 847.8395,-312 847.8395,-312 847.8395,-318 841.8395,-324 835.8395,-324"/>
      <text text-anchor="middle" x="820.8395" y="-309" font-family="Helvetica,sans-Serif" font-size="10.00" fill="#000000">PMAY</text>
      <text text-anchor="middle" x="820.8395" y="-297" font-family="Helvetica,sans-Serif" font-size="10.00" fill="#000000">Subsidy</text>
    </g>
    <!-- 11 -->
    <g id="node20" class="node">
      <title>11</title>
      <polygon fill="none" stroke="#000000" points="858.9097,-248 782.7693,-248 782.7693,-212 858.9097,-212 858.9097,-248"/>
      <text text-anchor="middle" x="820.8395" y="-227" font-family="Helvetica,sans-Serif" font-size="10.00" fill="#000000">Total Subsidy</text>
    </g>
    <!-- M&#45;&gt;11 -->
    <g id="edge18" class="edge">
      <title>M-&gt;11</title>
      <path fill="none" stroke="#000000" d="M820.8395,-287.9891C820.8395,-279.1566 820.8395,-268.3099 820.8395,-258.3965"/>
      <polygon fill="#000000" stroke="#000000" points="824.3396,-258.145 820.8395,-248.145 817.3396,-258.1451 824.3396,-258.145"/>
    </g>
    <!-- 4 -->
    <g id="node16" class="node">
      <title>4</title>
      <polygon fill="none" stroke="#000000" points="613.0081,-252 520.6709,-252 520.6709,-208 613.0081,-208 613.0081,-252"/>
      <text text-anchor="middle" x="566.8395" y="-239" font-family="Helvetica,sans-Serif" font-size="10.00" fill="#000000">Total Area</text>
      <text text-anchor="middle" x="566.8395" y="-227" font-family="Helvetica,sans-Serif" font-size="10.00" fill="#000000"> Available for</text>
      <text text-anchor="middle" x="566.8395" y="-215" font-family="Helvetica,sans-Serif" font-size="10.00" fill="#000000">Premium Houses</text>
    </g>
    <!-- 1&#45;&gt;4 -->
    <g id="edge9" class="edge">
      <title>1-&gt;4</title>
      <path fill="none" stroke="#000000" d="M288.6493,-299.9777C339.0612,-292.0309 427.4431,-276.4438 510.9099,-252.0566"/>
      <polygon fill="#000000" stroke="#000000" points="511.9462,-255.4 520.5359,-249.1977 509.9532,-248.6897 511.9462,-255.4"/>
    </g>
    <!-- 8 -->
    <g id="node22" class="node">
      <title>8</title>
      <polygon fill="#c0c0c0" stroke="#000000" stroke-width="2" points="166.2821,-248 105.3969,-248 105.3969,-212 166.2821,-212 166.2821,-248"/>
      <text text-anchor="middle" x="135.8395" y="-233" font-family="Helvetica,sans-Serif" font-size="10.00" fill="#000000">Project</text>
      <text text-anchor="middle" x="135.8395" y="-221" font-family="Helvetica,sans-Serif" font-size="10.00" fill="#000000">Feasibility</text>
    </g>
    <!-- 1&#45;&gt;8 -->
    <g id="edge11" class="edge">
      <title>1-&gt;8</title>
      <path fill="none" stroke="#000000" d="M221.2971,-287.9891C206.3422,-277.8411 187.469,-265.0343 171.2652,-254.0389"/>
      <polygon fill="#000000" stroke="#000000" points="172.8196,-250.8639 162.5796,-248.145 168.8891,-256.6563 172.8196,-250.8639"/>
    </g>
    <!-- 3&#45;&gt;4 -->
    <g id="edge8" class="edge">
      <title>3-&gt;4</title>
      <path fill="none" stroke="#000000" d="M623.3025,-287.9891C614.9923,-279.4542 604.8509,-269.0387 595.4676,-259.4018"/>
      <polygon fill="#000000" stroke="#000000" points="597.9666,-256.9513 588.4828,-252.2282 592.9513,-261.8346 597.9666,-256.9513"/>
    </g>
    <!-- 3&#45;&gt;6 -->
    <g id="edge16" class="edge">
      <title>3-&gt;6</title>
      <path fill="none" stroke="#000000" d="M642.4604,-287.7192C643.3415,-266.0353 641.372,-230.0568 621.8395,-208 604.9721,-188.9528 539.0498,-171.7774 495.2481,-162.1366"/>
      <polygon fill="#000000" stroke="#000000" points="495.9618,-158.7101 485.4487,-160.0236 494.4862,-165.5529 495.9618,-158.7101"/>
    </g>
    <!-- 3&#45;&gt;11 -->
    <g id="edge19" class="edge">
      <title>3-&gt;11</title>
      <path fill="none" stroke="#000000" d="M686.9431,-287.9668C710.4444,-278.6178 739.6379,-266.767 773.1348,-252.2292"/>
      <polygon fill="#000000" stroke="#000000" points="774.93,-255.2646 782.6957,-248.0574 772.1304,-248.8488 774.93,-255.2646"/>
    </g>
    <!-- 3&#45;&gt;12 -->
    <g id="edge21" class="edge">
      <title>3-&gt;12</title>
      <path fill="none" stroke="#000000" d="M696.6169,-296.9044C741.0382,-288.7287 804.6437,-274.936 867.336,-251.7513"/>
      <polygon fill="#000000" stroke="#000000" points="868.8642,-254.9154 876.9809,-248.106 866.3893,-248.3675 868.8642,-254.9154"/>
    </g>
    <!-- 3&#45;&gt;8 -->
    <g id="edge10" class="edge">
      <title>3-&gt;8</title>
      <path fill="none" stroke="#000000" d="M584.887,-302.3032C478.2535,-294.8004 249.869,-276.4056 174.8395,-252 174.7379,-251.9669 174.6362,-251.9336 174.5345,-251.9"/>
      <polygon fill="#000000" stroke="#000000" points="175.6708,-248.5845 165.0872,-248.0969 173.0567,-255.0781 175.6708,-248.5845"/>
    </g>
    <!-- 4&#45;&gt;6 -->
    <g id="edge17" class="edge">
      <title>4-&gt;6</title>
      <path fill="none" stroke="#000000" d="M534.1434,-207.8133C520.3482,-198.4523 504.2567,-187.5331 490.1876,-177.9862"/>
      <polygon fill="#000000" stroke="#000000" points="491.9675,-174.9643 481.7275,-172.2454 488.037,-180.7567 491.9675,-174.9643"/>
    </g>
    <!-- 4&#45;&gt;7 -->
    <g id="edge25" class="edge">
      <title>4-&gt;7</title>
      <path fill="none" stroke="#000000" d="M610.6289,-207.8133C629.8889,-198.0549 652.4911,-186.6032 671.883,-176.7779"/>
      <polygon fill="#000000" stroke="#000000" points="673.4903,-179.8873 680.8288,-172.2454 670.3265,-173.643 673.4903,-179.8873"/>
    </g>
    <!-- 9 -->
    <g id="node23" class="node">
      <title>9</title>
      <polygon fill="#c0c0c0" stroke="#000000" stroke-width="2" points="626.3555,-100 545.3235,-100 545.3235,-56 626.3555,-56 626.3555,-100"/>
      <text text-anchor="middle" x="585.8395" y="-87" font-family="Helvetica,sans-Serif" font-size="10.00" fill="#000000">Internal</text>
      <text text-anchor="middle" x="585.8395" y="-75" font-family="Helvetica,sans-Serif" font-size="10.00" fill="#000000">Rate of Return</text>
      <text text-anchor="middle" x="585.8395" y="-63" font-family="Helvetica,sans-Serif" font-size="10.00" fill="#000000">(Profitability)</text>
    </g>
    <!-- 6&#45;&gt;9 -->
    <g id="edge26" class="edge">
      <title>6-&gt;9</title>
      <path fill="none" stroke="#000000" d="M485.5532,-136.1814C501.3953,-126.9905 521.0621,-115.5808 538.7718,-105.3065"/>
      <polygon fill="#000000" stroke="#000000" points="540.9304,-108.1005 547.8238,-100.0549 537.4177,-102.0457 540.9304,-108.1005"/>
    </g>
    <!-- 7&#45;&gt;9 -->
    <g id="edge27" class="edge">
      <title>7-&gt;9</title>
      <path fill="none" stroke="#000000" d="M685.7943,-135.9891C670.0734,-126.8685 650.6505,-115.6003 633.1194,-105.4296"/>
      <polygon fill="#000000" stroke="#000000" points="634.56,-102.219 624.1539,-100.2282 631.0473,-108.2738 634.56,-102.219"/>
    </g>
    <!-- 10&#45;&gt;1 -->
    <g id="edge3" class="edge">
      <title>10-&gt;1</title>
      <path fill="none" stroke="#000000" d="M306.5916,-363.9891C296.6909,-354.2169 284.2922,-341.9793 273.4398,-331.2678"/>
      <polygon fill="#000000" stroke="#000000" points="275.7991,-328.6788 266.2233,-324.145 270.8818,-333.6608 275.7991,-328.6788"/>
    </g>
    <!-- 11&#45;&gt;7 -->
    <g id="edge24" class="edge">
      <title>11-&gt;7</title>
      <path fill="none" stroke="#000000" d="M796.193,-211.9891C782.4348,-201.9351 765.1054,-189.2712 750.1534,-178.3448"/>
      <polygon fill="#000000" stroke="#000000" points="751.8085,-175.2194 741.6695,-172.145 747.6784,-180.8711 751.8085,-175.2194"/>
    </g>
    <!-- 12&#45;&gt;7 -->
    <g id="edge22" class="edge">
      <title>12-&gt;7</title>
      <path fill="none" stroke="#000000" d="M876.8366,-212.2446C873.8238,-210.7504 870.7926,-209.3116 867.8395,-208 835.0349,-193.4304 796.9742,-179.8398 767.2716,-169.9374"/>
      <polygon fill="#000000" stroke="#000000" points="768.1318,-166.5356 757.5387,-166.7245 765.9375,-173.1828 768.1318,-166.5356"/>
    </g>
  </g>
</svg>
