<?xml version="1.0" encoding="UTF-8" standalone="no"?>
<!DOCTYPE svg PUBLIC "-//W3C//DTD SVG 1.1//EN" "http://www.w3.org/Graphics/SVG/1.1/DTD/svg11.dtd">
<!-- Generated by graphviz version 2.40.1 (20161225.0304)
 -->
<!-- Title: issr_simulation Pages: 1 -->
<svg xmlns="http://www.w3.org/2000/svg" xmlns:xlink="http://www.w3.org/1999/xlink" width="736pt" height="586pt" viewBox="0.00 0.00 735.81 586.00">
  <g id="graph0" class="graph" transform="scale(1 1) rotate(0) translate(4 582)">
    <title>issr_simulation</title>
    <polygon fill="#ffffff" stroke="transparent" points="-4,4 -4,-582 731.806,-582 731.806,4 -4,4"/>
    <text text-anchor="middle" x="355.0185" y="-31" font-family="Helvetica,sans-Serif" font-size="10.00" fill="#000000">This diagram shows the flow of information in the simulation. Each round-edged box represents a random variable with an associated probability distribution. </text>
    <text text-anchor="middle" x="355.0185" y="-19" font-family="Helvetica,sans-Serif" font-size="10.00" fill="#000000">         The rectangular boxes show intermediate metrics calculated from the random variables, </text>
    <text text-anchor="middle" x="355.0185" y="-7" font-family="Helvetica,sans-Serif" font-size="10.00" fill="#000000">and further downstream calculations lead to the final outcomes of the simulation, represented by the grey boxes</text>
    <!-- A -->
    <g id="node1" class="node">
      <title>A</title>
      <path fill="none" stroke="#000000" d="M170.6039,-408C170.6039,-408 132.2601,-408 132.2601,-408 126.2601,-408 120.2601,-402 120.2601,-396 120.2601,-396 120.2601,-384 120.2601,-384 120.2601,-378 126.2601,-372 132.2601,-372 132.2601,-372 170.6039,-372 170.6039,-372 176.6039,-372 182.6039,-378 182.6039,-384 182.6039,-384 182.6039,-396 182.6039,-396 182.6039,-402 176.6039,-408 170.6039,-408"/>
      <text text-anchor="middle" x="151.432" y="-387" font-family="Helvetica,sans-Serif" font-size="10.00" fill="#000000">Slum Area</text>
    </g>
    <!-- 1 -->
    <g id="node14" class="node">
      <title>1</title>
      <polygon fill="none" stroke="#000000" points="329.2525,-350 248.2205,-350 248.2205,-314 329.2525,-314 329.2525,-350"/>
      <text text-anchor="middle" x="288.7365" y="-335" font-family="Helvetica,sans-Serif" font-size="10.00" fill="#000000">Total</text>
      <text text-anchor="middle" x="288.7365" y="-323" font-family="Helvetica,sans-Serif" font-size="10.00" fill="#000000">Buildable Area</text>
    </g>
    <!-- A&#45;&gt;1 -->
    <g id="edge2" class="edge">
      <title>A-&gt;1</title>
      <path fill="none" stroke="#000000" d="M182.9324,-376.6936C199.4587,-369.7126 220.0953,-360.9953 238.744,-353.1178"/>
      <polygon fill="#000000" stroke="#000000" points="240.1466,-356.3248 247.9965,-349.2094 237.4227,-349.8765 240.1466,-356.3248"/>
    </g>
    <!-- B -->
    <g id="node2" class="node">
      <title>B</title>
      <path fill="none" stroke="#000000" d="M184.956,-246C184.956,-246 117.908,-246 117.908,-246 111.908,-246 105.908,-240 105.908,-234 105.908,-234 105.908,-214 105.908,-214 105.908,-208 111.908,-202 117.908,-202 117.908,-202 184.956,-202 184.956,-202 190.956,-202 196.956,-208 196.956,-214 196.956,-214 196.956,-234 196.956,-234 196.956,-240 190.956,-246 184.956,-246"/>
      <text text-anchor="middle" x="151.432" y="-233" font-family="Helvetica,sans-Serif" font-size="10.00" fill="#000000">Number of</text>
      <text text-anchor="middle" x="151.432" y="-221" font-family="Helvetica,sans-Serif" font-size="10.00" fill="#000000">Households</text>
      <text text-anchor="middle" x="151.432" y="-209" font-family="Helvetica,sans-Serif" font-size="10.00" fill="#000000">in the Slum Land</text>
    </g>
    <!-- 3 -->
    <g id="node15" class="node">
      <title>3</title>
      <polygon fill="none" stroke="#000000" points="344.3223,-221 233.1507,-221 233.1507,-185 344.3223,-185 344.3223,-221"/>
      <text text-anchor="middle" x="288.7365" y="-206" font-family="Helvetica,sans-Serif" font-size="10.00" fill="#000000">Area Required for</text>
      <text text-anchor="middle" x="288.7365" y="-194" font-family="Helvetica,sans-Serif" font-size="10.00" fill="#000000">Redeveloped Houses</text>
    </g>
    <!-- B&#45;&gt;3 -->
    <g id="edge5" class="edge">
      <title>B-&gt;3</title>
      <path fill="none" stroke="#000000" d="M197.1524,-217.0073C205.3388,-215.7552 214.0166,-214.428 222.6406,-213.109"/>
      <polygon fill="#000000" stroke="#000000" points="223.3511,-216.5411 232.7069,-211.5694 222.2927,-209.6216 223.3511,-216.5411"/>
    </g>
    <!-- C -->
    <g id="node3" class="node">
      <title>C</title>
      <path fill="none" stroke="#000000" d="M57.88,-300C57.88,-300 12.04,-300 12.04,-300 6.04,-300 .04,-294 .04,-288 .04,-288 .04,-276 .04,-276 .04,-270 6.04,-264 12.04,-264 12.04,-264 57.88,-264 57.88,-264 63.88,-264 69.88,-270 69.88,-276 69.88,-276 69.88,-288 69.88,-288 69.88,-294 63.88,-300 57.88,-300"/>
      <text text-anchor="middle" x="34.96" y="-285" font-family="Helvetica,sans-Serif" font-size="10.00" fill="#000000">Land Shape</text>
      <text text-anchor="middle" x="34.96" y="-273" font-family="Helvetica,sans-Serif" font-size="10.00" fill="#000000">Index</text>
    </g>
    <!-- 10 -->
    <g id="node19" class="node">
      <title>10</title>
      <polygon fill="none" stroke="#000000" points="183.2223,-300 119.6417,-300 119.6417,-264 183.2223,-264 183.2223,-300"/>
      <text text-anchor="middle" x="151.432" y="-285" font-family="Helvetica,sans-Serif" font-size="10.00" fill="#000000">Penalty for</text>
      <text text-anchor="middle" x="151.432" y="-273" font-family="Helvetica,sans-Serif" font-size="10.00" fill="#000000">Shape</text>
    </g>
    <!-- C&#45;&gt;10 -->
    <g id="edge1" class="edge">
      <title>C-&gt;10</title>
      <path fill="none" stroke="#000000" d="M69.9054,-282C82.2776,-282 96.329,-282 109.2394,-282"/>
      <polygon fill="#000000" stroke="#000000" points="109.2948,-285.5001 119.2948,-282 109.2947,-278.5001 109.2948,-285.5001"/>
    </g>
    <!-- D -->
    <g id="node4" class="node">
      <title>D</title>
      <path fill="none" stroke="#000000" d="M166.432,-354C166.432,-354 136.432,-354 136.432,-354 130.432,-354 124.432,-348 124.432,-342 124.432,-342 124.432,-330 124.432,-330 124.432,-324 130.432,-318 136.432,-318 136.432,-318 166.432,-318 166.432,-318 172.432,-318 178.432,-324 178.432,-330 178.432,-330 178.432,-342 178.432,-342 178.432,-348 172.432,-354 166.432,-354"/>
      <text text-anchor="middle" x="151.432" y="-333" font-family="Helvetica,sans-Serif" font-size="10.00" fill="#000000">FAR</text>
    </g>
    <!-- D&#45;&gt;1 -->
    <g id="edge4" class="edge">
      <title>D-&gt;1</title>
      <path fill="none" stroke="#000000" d="M178.559,-335.2097C195.5409,-334.715 217.9528,-334.0621 238.1272,-333.4744"/>
      <polygon fill="#000000" stroke="#000000" points="238.2302,-336.9729 248.124,-333.1831 238.0263,-329.9759 238.2302,-336.9729"/>
    </g>
    <!-- E -->
    <g id="node5" class="node">
      <title>E</title>
      <path fill="none" stroke="#000000" d="M184.95,-184C184.95,-184 117.914,-184 117.914,-184 111.914,-184 105.914,-178 105.914,-172 105.914,-172 105.914,-152 105.914,-152 105.914,-146 111.914,-140 117.914,-140 117.914,-140 184.95,-140 184.95,-140 190.95,-140 196.95,-146 196.95,-152 196.95,-152 196.95,-172 196.95,-172 196.95,-178 190.95,-184 184.95,-184"/>
      <text text-anchor="middle" x="151.432" y="-171" font-family="Helvetica,sans-Serif" font-size="10.00" fill="#000000">Additional</text>
      <text text-anchor="middle" x="151.432" y="-159" font-family="Helvetica,sans-Serif" font-size="10.00" fill="#000000">Households</text>
      <text text-anchor="middle" x="151.432" y="-147" font-family="Helvetica,sans-Serif" font-size="10.00" fill="#000000">to Accommodate</text>
    </g>
    <!-- E&#45;&gt;3 -->
    <g id="edge6" class="edge">
      <title>E-&gt;3</title>
      <path fill="none" stroke="#000000" d="M197.1524,-175.6524C205.4277,-178.1235 214.2053,-180.7445 222.9218,-183.3473"/>
      <polygon fill="#000000" stroke="#000000" points="222.1236,-186.7616 232.7069,-186.2692 224.1265,-180.0542 222.1236,-186.7616"/>
    </g>
    <!-- F -->
    <g id="node6" class="node">
      <title>F</title>
      <path fill="none" stroke="#000000" d="M176.8421,-122C176.8421,-122 126.0219,-122 126.0219,-122 120.0219,-122 114.0219,-116 114.0219,-110 114.0219,-110 114.0219,-90 114.0219,-90 114.0219,-84 120.0219,-78 126.0219,-78 126.0219,-78 176.8421,-78 176.8421,-78 182.8421,-78 188.8421,-84 188.8421,-90 188.8421,-90 188.8421,-110 188.8421,-110 188.8421,-116 182.8421,-122 176.8421,-122"/>
      <text text-anchor="middle" x="151.432" y="-109" font-family="Helvetica,sans-Serif" font-size="10.00" fill="#000000">Redeveloped</text>
      <text text-anchor="middle" x="151.432" y="-97" font-family="Helvetica,sans-Serif" font-size="10.00" fill="#000000">House</text>
      <text text-anchor="middle" x="151.432" y="-85" font-family="Helvetica,sans-Serif" font-size="10.00" fill="#000000">Size</text>
    </g>
    <!-- F&#45;&gt;3 -->
    <g id="edge7" class="edge">
      <title>F-&gt;3</title>
      <path fill="none" stroke="#000000" d="M184.4297,-122.0911C188.6714,-125.0432 192.9316,-128.065 196.944,-131 217.7354,-146.2087 240.5251,-164.0774 258.1954,-178.209"/>
      <polygon fill="#000000" stroke="#000000" points="256.4384,-181.2869 266.4275,-184.8181 260.8208,-175.8283 256.4384,-181.2869"/>
    </g>
    <!-- G -->
    <g id="node7" class="node">
      <title>G</title>
      <path fill="none" stroke="#000000" d="M481.8938,-578C481.8938,-578 392.4072,-578 392.4072,-578 386.4072,-578 380.4072,-572 380.4072,-566 380.4072,-566 380.4072,-554 380.4072,-554 380.4072,-548 386.4072,-542 392.4072,-542 392.4072,-542 481.8938,-542 481.8938,-542 487.8938,-542 493.8938,-548 493.8938,-554 493.8938,-554 493.8938,-566 493.8938,-566 493.8938,-572 487.8938,-578 481.8938,-578"/>
      <text text-anchor="middle" x="437.1505" y="-563" font-family="Helvetica,sans-Serif" font-size="10.00" fill="#000000">Construction Cost</text>
      <text text-anchor="middle" x="437.1505" y="-551" font-family="Helvetica,sans-Serif" font-size="10.00" fill="#000000">(Redeveloped House)</text>
    </g>
    <!-- 6 -->
    <g id="node17" class="node">
      <title>6</title>
      <polygon fill="none" stroke="#000000" points="600.8436,-408 539.7184,-408 539.7184,-372 600.8436,-372 600.8436,-408"/>
      <text text-anchor="middle" x="570.281" y="-387" font-family="Helvetica,sans-Serif" font-size="10.00" fill="#000000">Total Cost</text>
    </g>
    <!-- G&#45;&gt;6 -->
    <g id="edge12" class="edge">
      <title>G-&gt;6</title>
      <path fill="none" stroke="#000000" d="M482.1984,-541.9264C486.3589,-539.2781 490.3061,-536.309 493.772,-533 527.9523,-500.3673 550.2001,-449.0585 561.47,-417.5883"/>
      <polygon fill="#000000" stroke="#000000" points="564.785,-418.7114 564.7446,-408.1166 558.1692,-416.4241 564.785,-418.7114"/>
    </g>
    <!-- H -->
    <g id="node8" class="node">
      <title>H</title>
      <path fill="none" stroke="#000000" d="M473.1076,-524C473.1076,-524 401.1934,-524 401.1934,-524 395.1934,-524 389.1934,-518 389.1934,-512 389.1934,-512 389.1934,-500 389.1934,-500 389.1934,-494 395.1934,-488 401.1934,-488 401.1934,-488 473.1076,-488 473.1076,-488 479.1076,-488 485.1076,-494 485.1076,-500 485.1076,-500 485.1076,-512 485.1076,-512 485.1076,-518 479.1076,-524 473.1076,-524"/>
      <text text-anchor="middle" x="437.1505" y="-509" font-family="Helvetica,sans-Serif" font-size="10.00" fill="#000000">Construction Cost</text>
      <text text-anchor="middle" x="437.1505" y="-497" font-family="Helvetica,sans-Serif" font-size="10.00" fill="#000000">(Premium House)</text>
    </g>
    <!-- H&#45;&gt;6 -->
    <g id="edge13" class="edge">
      <title>H-&gt;6</title>
      <path fill="none" stroke="#000000" d="M480.0282,-487.9471C484.8423,-485.2314 489.533,-482.2416 493.772,-479 516.9317,-461.2899 538.1037,-435.5734 552.2748,-416.3332"/>
      <polygon fill="#000000" stroke="#000000" points="555.2716,-418.161 558.2752,-408.0008 549.5912,-414.0703 555.2716,-418.161"/>
    </g>
    <!-- I -->
    <g id="node9" class="node">
      <title>I</title>
      <path fill="none" stroke="#000000" d="M468.8301,-470C468.8301,-470 405.4709,-470 405.4709,-470 399.4709,-470 393.4709,-464 393.4709,-458 393.4709,-458 393.4709,-438 393.4709,-438 393.4709,-432 399.4709,-426 405.4709,-426 405.4709,-426 468.8301,-426 468.8301,-426 474.8301,-426 480.8301,-432 480.8301,-438 480.8301,-438 480.8301,-458 480.8301,-458 480.8301,-464 474.8301,-470 468.8301,-470"/>
      <text text-anchor="middle" x="437.1505" y="-457" font-family="Helvetica,sans-Serif" font-size="10.00" fill="#000000">Transit</text>
      <text text-anchor="middle" x="437.1505" y="-445" font-family="Helvetica,sans-Serif" font-size="10.00" fill="#000000">Accommodation</text>
      <text text-anchor="middle" x="437.1505" y="-433" font-family="Helvetica,sans-Serif" font-size="10.00" fill="#000000">Cost</text>
    </g>
    <!-- I&#45;&gt;6 -->
    <g id="edge15" class="edge">
      <title>I-&gt;6</title>
      <path fill="none" stroke="#000000" d="M481.1114,-428.8479C496.917,-421.962 514.652,-414.2355 530.1178,-407.4976"/>
      <polygon fill="#000000" stroke="#000000" points="531.6468,-410.6493 539.4167,-403.4464 528.851,-404.2318 531.6468,-410.6493"/>
    </g>
    <!-- J -->
    <g id="node10" class="node">
      <title>J</title>
      <path fill="none" stroke="#000000" d="M462.4983,-408C462.4983,-408 411.8027,-408 411.8027,-408 405.8027,-408 399.8027,-402 399.8027,-396 399.8027,-396 399.8027,-384 399.8027,-384 399.8027,-378 405.8027,-372 411.8027,-372 411.8027,-372 462.4983,-372 462.4983,-372 468.4983,-372 474.4983,-378 474.4983,-384 474.4983,-384 474.4983,-396 474.4983,-396 474.4983,-402 468.4983,-408 462.4983,-408"/>
      <text text-anchor="middle" x="437.1505" y="-393" font-family="Helvetica,sans-Serif" font-size="10.00" fill="#000000">Cost Inflation</text>
      <text text-anchor="middle" x="437.1505" y="-381" font-family="Helvetica,sans-Serif" font-size="10.00" fill="#000000">Factor</text>
    </g>
    <!-- J&#45;&gt;6 -->
    <g id="edge14" class="edge">
      <title>J-&gt;6</title>
      <path fill="none" stroke="#000000" d="M474.5891,-390C491.5304,-390 511.607,-390 528.9853,-390"/>
      <polygon fill="#000000" stroke="#000000" points="529.4049,-393.5001 539.4049,-390 529.4048,-386.5001 529.4049,-393.5001"/>
    </g>
    <!-- K -->
    <g id="node11" class="node">
      <title>K</title>
      <path fill="none" stroke="#000000" d="M307.2991,-92C307.2991,-92 270.1739,-92 270.1739,-92 264.1739,-92 258.1739,-86 258.1739,-80 258.1739,-80 258.1739,-68 258.1739,-68 258.1739,-62 264.1739,-56 270.1739,-56 270.1739,-56 307.2991,-56 307.2991,-56 313.2991,-56 319.2991,-62 319.2991,-68 319.2991,-68 319.2991,-80 319.2991,-80 319.2991,-86 313.2991,-92 307.2991,-92"/>
      <text text-anchor="middle" x="288.7365" y="-77" font-family="Helvetica,sans-Serif" font-size="10.00" fill="#000000">Sale Price</text>
      <text text-anchor="middle" x="288.7365" y="-65" font-family="Helvetica,sans-Serif" font-size="10.00" fill="#000000">of TDR</text>
    </g>
    <!-- 12 -->
    <g id="node21" class="node">
      <title>12</title>
      <polygon fill="none" stroke="#000000" points="468.892,-92 405.409,-92 405.409,-56 468.892,-56 468.892,-92"/>
      <text text-anchor="middle" x="437.1505" y="-77" font-family="Helvetica,sans-Serif" font-size="10.00" fill="#000000">Total TDR</text>
      <text text-anchor="middle" x="437.1505" y="-65" font-family="Helvetica,sans-Serif" font-size="10.00" fill="#000000">Generated</text>
    </g>
    <!-- K&#45;&gt;12 -->
    <g id="edge20" class="edge">
      <title>K-&gt;12</title>
      <path fill="none" stroke="#000000" d="M319.488,-74C341.3802,-74 371.0634,-74 395.1383,-74"/>
      <polygon fill="#000000" stroke="#000000" points="395.4144,-77.5001 405.4144,-74 395.4144,-70.5001 395.4144,-77.5001"/>
    </g>
    <!-- L -->
    <g id="node12" class="node">
      <title>L</title>
      <path fill="none" stroke="#000000" d="M473.0975,-200C473.0975,-200 401.2035,-200 401.2035,-200 395.2035,-200 389.2035,-194 389.2035,-188 389.2035,-188 389.2035,-176 389.2035,-176 389.2035,-170 395.2035,-164 401.2035,-164 401.2035,-164 473.0975,-164 473.0975,-164 479.0975,-164 485.0975,-170 485.0975,-176 485.0975,-176 485.0975,-188 485.0975,-188 485.0975,-194 479.0975,-200 473.0975,-200"/>
      <text text-anchor="middle" x="437.1505" y="-185" font-family="Helvetica,sans-Serif" font-size="10.00" fill="#000000">Premium Housing</text>
      <text text-anchor="middle" x="437.1505" y="-173" font-family="Helvetica,sans-Serif" font-size="10.00" fill="#000000">Sale Price</text>
    </g>
    <!-- 7 -->
    <g id="node18" class="node">
      <title>7</title>
      <polygon fill="none" stroke="#000000" points="610.799,-200 529.763,-200 529.763,-164 610.799,-164 610.799,-200"/>
      <text text-anchor="middle" x="570.281" y="-179" font-family="Helvetica,sans-Serif" font-size="10.00" fill="#000000">Total Revenue</text>
    </g>
    <!-- L&#45;&gt;7 -->
    <g id="edge23" class="edge">
      <title>L-&gt;7</title>
      <path fill="none" stroke="#000000" d="M485.2137,-182C496.3903,-182 508.3228,-182 519.6081,-182"/>
      <polygon fill="#000000" stroke="#000000" points="519.75,-185.5001 529.75,-182 519.7499,-178.5001 519.75,-185.5001"/>
    </g>
    <!-- M -->
    <g id="node13" class="node">
      <title>M</title>
      <path fill="none" stroke="#000000" d="M303.7365,-146C303.7365,-146 273.7365,-146 273.7365,-146 267.7365,-146 261.7365,-140 261.7365,-134 261.7365,-134 261.7365,-122 261.7365,-122 261.7365,-116 267.7365,-110 273.7365,-110 273.7365,-110 303.7365,-110 303.7365,-110 309.7365,-110 315.7365,-116 315.7365,-122 315.7365,-122 315.7365,-134 315.7365,-134 315.7365,-140 309.7365,-146 303.7365,-146"/>
      <text text-anchor="middle" x="288.7365" y="-131" font-family="Helvetica,sans-Serif" font-size="10.00" fill="#000000">PMAY</text>
      <text text-anchor="middle" x="288.7365" y="-119" font-family="Helvetica,sans-Serif" font-size="10.00" fill="#000000">Subsidy</text>
    </g>
    <!-- 11 -->
    <g id="node20" class="node">
      <title>11</title>
      <polygon fill="none" stroke="#000000" points="475.2207,-146 399.0803,-146 399.0803,-110 475.2207,-110 475.2207,-146"/>
      <text text-anchor="middle" x="437.1505" y="-125" font-family="Helvetica,sans-Serif" font-size="10.00" fill="#000000">Total Subsidy</text>
    </g>
    <!-- M&#45;&gt;11 -->
    <g id="edge18" class="edge">
      <title>M-&gt;11</title>
      <path fill="none" stroke="#000000" d="M315.9579,-128C336.3139,-128 364.683,-128 388.8566,-128"/>
      <polygon fill="#000000" stroke="#000000" points="388.9242,-131.5001 398.9242,-128 388.9241,-124.5001 388.9242,-131.5001"/>
    </g>
    <!-- 4 -->
    <g id="node16" class="node">
      <title>4</title>
      <polygon fill="none" stroke="#000000" points="483.3191,-354 390.9819,-354 390.9819,-310 483.3191,-310 483.3191,-354"/>
      <text text-anchor="middle" x="437.1505" y="-341" font-family="Helvetica,sans-Serif" font-size="10.00" fill="#000000">Total Area</text>
      <text text-anchor="middle" x="437.1505" y="-329" font-family="Helvetica,sans-Serif" font-size="10.00" fill="#000000"> Available for</text>
      <text text-anchor="middle" x="437.1505" y="-317" font-family="Helvetica,sans-Serif" font-size="10.00" fill="#000000">Premium Houses</text>
    </g>
    <!-- 1&#45;&gt;4 -->
    <g id="edge9" class="edge">
      <title>1-&gt;4</title>
      <path fill="none" stroke="#000000" d="M329.2913,-332C345.0698,-332 363.4235,-332 380.4688,-332"/>
      <polygon fill="#000000" stroke="#000000" points="380.8781,-335.5001 390.878,-332 380.878,-328.5001 380.8781,-335.5001"/>
    </g>
    <!-- 8 -->
    <g id="node22" class="node">
      <title>8</title>
      <polygon fill="#c0c0c0" stroke="#000000" stroke-width="2" points="467.5931,-292 406.7079,-292 406.7079,-256 467.5931,-256 467.5931,-292"/>
      <text text-anchor="middle" x="437.1505" y="-277" font-family="Helvetica,sans-Serif" font-size="10.00" fill="#000000">Project</text>
      <text text-anchor="middle" x="437.1505" y="-265" font-family="Helvetica,sans-Serif" font-size="10.00" fill="#000000">Feasibility</text>
    </g>
    <!-- 1&#45;&gt;8 -->
    <g id="edge11" class="edge">
      <title>1-&gt;8</title>
      <path fill="none" stroke="#000000" d="M329.2913,-316.1512C350.3333,-307.9281 375.9553,-297.915 396.9461,-289.7118"/>
      <polygon fill="#000000" stroke="#000000" points="398.494,-292.8648 406.534,-285.9649 395.946,-286.3449 398.494,-292.8648"/>
    </g>
    <!-- 3&#45;&gt;4 -->
    <g id="edge8" class="edge">
      <title>3-&gt;4</title>
      <path fill="none" stroke="#000000" d="M302.8474,-221.2723C319.7186,-242.2973 349.5782,-277.0034 380.529,-301 381.899,-302.0622 383.3102,-303.1092 384.7526,-304.139"/>
      <polygon fill="#000000" stroke="#000000" points="383.0247,-307.1937 393.2852,-309.8344 386.911,-301.3716 383.0247,-307.1937"/>
    </g>
    <!-- 3&#45;&gt;6 -->
    <g id="edge16" class="edge">
      <title>3-&gt;6</title>
      <path fill="none" stroke="#000000" d="M344.7813,-209.6649C397.1568,-216.8322 470.6512,-229.5887 493.772,-247 531.9277,-275.7334 553.1113,-329.1796 563.0615,-361.969"/>
      <polygon fill="#000000" stroke="#000000" points="559.7716,-363.1923 565.9046,-371.8315 566.4977,-361.2533 559.7716,-363.1923"/>
    </g>
    <!-- 3&#45;&gt;11 -->
    <g id="edge19" class="edge">
      <title>3-&gt;11</title>
      <path fill="none" stroke="#000000" d="M322.5852,-184.9199C339.8488,-175.7957 361.2245,-164.6459 380.529,-155 383.5932,-153.4689 386.7591,-151.9065 389.9556,-150.3435"/>
      <polygon fill="#000000" stroke="#000000" points="391.516,-153.4767 398.9856,-145.9629 388.4607,-147.1787 391.516,-153.4767"/>
    </g>
    <!-- 3&#45;&gt;12 -->
    <g id="edge21" class="edge">
      <title>3-&gt;12</title>
      <path fill="none" stroke="#000000" d="M312.5596,-184.9246C322.9716,-176.435 334.9632,-165.8153 344.529,-155 363.6388,-133.3941 358.7275,-119.8864 380.529,-101 385.2826,-96.882 390.773,-93.2479 396.4257,-90.089"/>
      <polygon fill="#000000" stroke="#000000" points="398.0537,-93.1876 405.3598,-85.5148 394.8635,-86.9568 398.0537,-93.1876"/>
    </g>
    <!-- 3&#45;&gt;8 -->
    <g id="edge10" class="edge">
      <title>3-&gt;8</title>
      <path fill="none" stroke="#000000" d="M326.5716,-221.1C348.3641,-231.5253 375.7165,-244.6105 397.7651,-255.1583"/>
      <polygon fill="#000000" stroke="#000000" points="396.3267,-258.3501 406.858,-259.5083 399.3476,-252.0355 396.3267,-258.3501"/>
    </g>
    <!-- 4&#45;&gt;6 -->
    <g id="edge17" class="edge">
      <title>4-&gt;6</title>
      <path fill="none" stroke="#000000" d="M483.3395,-352.1228C498.6176,-358.7789 515.4808,-366.1256 530.2572,-372.5631"/>
      <polygon fill="#000000" stroke="#000000" points="529.0628,-375.8605 539.6285,-376.6459 531.8587,-369.443 529.0628,-375.8605"/>
    </g>
    <!-- 4&#45;&gt;7 -->
    <g id="edge25" class="edge">
      <title>4-&gt;7</title>
      <path fill="none" stroke="#000000" d="M482.4811,-309.9567C486.4909,-307.1994 490.3285,-304.209 493.772,-301 522.1328,-274.5706 544.6054,-235.4957 557.6698,-209.415"/>
      <polygon fill="#000000" stroke="#000000" points="560.9707,-210.6312 562.2088,-200.1089 554.6791,-207.5624 560.9707,-210.6312"/>
    </g>
    <!-- 9 -->
    <g id="node23" class="node">
      <title>9</title>
      <polygon fill="#c0c0c0" stroke="#000000" stroke-width="2" points="727.814,-308 646.782,-308 646.782,-264 727.814,-264 727.814,-308"/>
      <text text-anchor="middle" x="687.298" y="-295" font-family="Helvetica,sans-Serif" font-size="10.00" fill="#000000">Internal</text>
      <text text-anchor="middle" x="687.298" y="-283" font-family="Helvetica,sans-Serif" font-size="10.00" fill="#000000">Rate of Return</text>
      <text text-anchor="middle" x="687.298" y="-271" font-family="Helvetica,sans-Serif" font-size="10.00" fill="#000000">(Profitability)</text>
    </g>
    <!-- 6&#45;&gt;9 -->
    <g id="edge26" class="edge">
      <title>6-&gt;9</title>
      <path fill="none" stroke="#000000" d="M590.6638,-371.8846C608.315,-356.1969 634.166,-333.2216 654.6898,-314.9809"/>
      <polygon fill="#000000" stroke="#000000" points="657.1172,-317.506 662.2667,-308.2468 652.467,-312.2738 657.1172,-317.506"/>
    </g>
    <!-- 7&#45;&gt;9 -->
    <g id="edge27" class="edge">
      <title>7-&gt;9</title>
      <path fill="none" stroke="#000000" d="M590.6638,-200.1154C608.315,-215.8031 634.166,-238.7784 654.6898,-257.0191"/>
      <polygon fill="#000000" stroke="#000000" points="652.467,-259.7262 662.2667,-263.7532 657.1172,-254.494 652.467,-259.7262"/>
    </g>
    <!-- 10&#45;&gt;1 -->
    <g id="edge3" class="edge">
      <title>10-&gt;1</title>
      <path fill="none" stroke="#000000" d="M183.2775,-293.5967C199.7382,-299.5909 220.2069,-307.0446 238.7196,-313.7861"/>
      <polygon fill="#000000" stroke="#000000" points="237.5966,-317.102 248.1906,-317.235 239.9919,-310.5245 237.5966,-317.102"/>
    </g>
    <!-- 11&#45;&gt;7 -->
    <g id="edge24" class="edge">
      <title>11-&gt;7</title>
      <path fill="none" stroke="#000000" d="M475.3004,-143.4742C489.1668,-149.0987 505.0584,-155.5446 519.8249,-161.5341"/>
      <polygon fill="#000000" stroke="#000000" points="518.7512,-164.8755 529.3335,-165.391 521.3823,-158.3888 518.7512,-164.8755"/>
    </g>
    <!-- 12&#45;&gt;7 -->
    <g id="edge22" class="edge">
      <title>12-&gt;7</title>
      <path fill="none" stroke="#000000" d="M468.8794,-86.612C477.3268,-90.6303 486.201,-95.4865 493.772,-101 515.1384,-116.5599 535.4928,-138.5857 549.8285,-155.7422"/>
      <polygon fill="#000000" stroke="#000000" points="547.3185,-158.2017 556.3605,-163.7237 552.7356,-153.7682 547.3185,-158.2017"/>
    </g>
  </g>
</svg>
